{
  "accessors": [
    {
      "bufferView": 2,
      "componentType": 5126,
      "count": 6664,
      "max": [
        39.020301818847656,
        15.333399772644043,
        70.478599548339844
      ],
      "min": [
        -39.160099029541016,
        -9.7094001770019531,
        -0.17738999426364899
      ],
      "type": "VEC3"
    },
    {
      "bufferView": 2,
      "byteOffset": 79968,
      "componentType": 5126,
      "count": 6664,
      "max": [
        0.99989813566207886,
        0.99997907876968384,
        0.99980539083480835
      ],
      "min": [
        -0.99977201223373413,
        -0.99999827146530151,
        -0.99996405839920044
      ],
      "type": "VEC3"
    },
    {
      "bufferView": 3,
      "componentType": 5126,
      "count": 6664,
      "max": [
        1,
        0.99999302625656128,
        1,
        1
      ],
      "min": [
        -0.99999845027923584,
        -0.99985772371292114,
        -0.9999992847442627,
        -1
      ],
      "type": "VEC4"
    },
    {
      "bufferView": 1,
      "componentType": 5126,
      "count": 6664,
      "max": [
        0.99610000848770142,
        -0.0057999999262392521
      ],
      "min": [
        0.0012000000569969416,
        -1
      ],
      "type": "VEC2"
    },
    {
      "bufferView": 0,
      "componentType": 5125,
      "count": 30816,
      "max": [
        6663
      ],
      "min": [
        0
      ],
      "type": "SCALAR"
    },
    {
      "bufferView": 2,
      "byteOffset": 159936,
      "componentType": 5126,
      "count": 162,
      "max": [
        1.9678000211715698,
        -1.5455000400543213,
        66.590499877929688
      ],
      "min": [
        -1.9678000211715698,
        -2.3420999050140381,
        64.997200012207031
      ],
      "type": "VEC3"
    },
    {
      "bufferView": 2,
      "byteOffset": 161880,
      "componentType": 5126,
      "count": 162,
      "max": [
        0.98080587387084961,
        -0.19477537274360657,
        0.98075681924819946
      ],
      "min": [
        -0.98080587387084961,
        -1,
        -0.98074418306350708
      ],
      "type": "VEC3"
    },
    {
      "bufferView": 3,
      "byteOffset": 106624,
      "componentType": 5126,
      "count": 162,
      "max": [
        1,
        0.98080581426620483,
        0.10770274698734283,
        -1
      ],
      "min": [
        0.19498710334300995,
        -0.98080587387084961,
        -0.10787853598594666,
        -1
      ],
      "type": "VEC4"
    },
    {
      "bufferView": 1,
      "byteOffset": 53312,
      "componentType": 5126,
      "count": 162,
      "max": [
        0.99949997663497925,
        0.99949997663497925
      ],
      "min": [
        0.00050000002374872565,
        0.00050000002374872565
      ],
      "type": "VEC2"
    },
    {
      "bufferView": 0,
      "byteOffset": 123264,
      "componentType": 5125,
      "count": 864,
      "max": [
        161
      ],
      "min": [
        0
      ],
      "type": "SCALAR"
    }
  ],
  "asset": {
    "extras": {
      "author": "adamryandavis007 (https://sketchfab.com/adamryandavis007)",
      "license": "CC-BY-4.0 (http://creativecommons.org/licenses/by/4.0/)",
      "source": "https://sketchfab.com/3d-models/jotaro-kujo-cc17b430f8a24c85b382f9faef53e76b",
      "title": "Jotaro Kujo"
    },
    "generator": "Sketchfab-4.91.0",
    "version": "2.0"
  },
  "bufferViews": [
    {
      "buffer": 0,
      "byteLength": 126720,
      "byteOffset": 0,
      "name": "floatBufferViews",
      "target": 34963
    },
    {
      "buffer": 0,
      "byteLength": 54608,
      "byteOffset": 126720,
      "byteStride": 8,
      "name": "floatBufferViews",
      "target": 34962
    },
    {
      "buffer": 0,
      "byteLength": 163824,
      "byteOffset": 181328,
      "byteStride": 12,
      "name": "floatBufferViews",
      "target": 34962
    },
    {
      "buffer": 0,
      "byteLength": 109216,
      "byteOffset": 345152,
      "byteStride": 16,
      "name": "floatBufferViews",
      "target": 34962
    }
  ],
  "buffers": [
    {
      "byteLength": 454368,
      "uri": "scene.bin"
    }
  ],
  "extensionsUsed": [
    "KHR_materials_unlit"
  ],
  "images": [
    {
      "uri": "textures/JotaroDIUEye_baseColor.jpeg"
    },
    {
      "uri": "textures/JotaroDIUMain_baseColor.jpeg"
    }
  ],
  "materials": [
    {
      "doubleSided": true,
      "extensions": {
        "KHR_materials_unlit": {}
      },
      "name": "JotaroDIUMain",
      "pbrMetallicRoughness": {
        "baseColorFactor": [
          1,
          1,
          1,
          1
        ],
        "baseColorTexture": {
          "index": 1,
          "texCoord": 0
        },
        "metallicFactor": 0,
        "roughnessFactor": 1
      }
    },
    {
      "doubleSided": true,
      "extensions": {
        "KHR_materials_unlit": {}
      },
      "name": "JotaroDIUEye",
      "pbrMetallicRoughness": {
        "baseColorFactor": [
          1,
          1,
          1,
          1
        ],
        "baseColorTexture": {
          "index": 0,
          "texCoord": 0
        },
        "metallicFactor": 0,
        "roughnessFactor": 1
      }
    }
  ],
  "meshes": [
    {
      "name": "jotarodiu",
      "primitives": [
        {
          "attributes": {
            "NORMAL": 1,
            "POSITION": 0,
            "TANGENT": 2,
            "TEXCOORD_0": 3
          },
          "indices": 4,
          "material": 0,
          "mode": 4
        }
      ]
    },
    {
      "name": "jotarodiu",
      "primitives": [
        {
          "attributes": {
            "NORMAL": 6,
            "POSITION": 5,
            "TANGENT": 7,
            "TEXCOORD_0": 8
          },
          "indices": 9,
          "material": 1,
          "mode": 4
        }
      ]
    }
  ],
  "nodes": [
    {
      "children": [
        1
      ],
      "name": "RootNode (gltf orientation matrix)",
      "rotation": [
        -0.70710678118654746,
        -0,
        -0,
        0.70710678118654757
      ]
    },
    {
      "children": [
        2
      ],
      "name": "RootNode (model correction matrix)"
    },
    {
      "children": [
        3,
        5
      ],
      "name": "Root"
    },
    {
      "children": [
        4
      ],
      "matrix": [
        -0.29086000000000006,
        0.95517000000000007,
        -0.05519000000000001,
        0,
        -0.77110000000000001,
        -0.19988000000000003,
        0.60452000000000006,
        0,
        0.56639000000000006,
        0.21839000000000003,
        0.7946700000000001,
        0,
        4.0762500000000008,
        1.00545,
        5.9038600000000008,
        1
      ],
      "name": "Lamp"
    },
    {
      "name": "Lamp"
    },
    {
      "children": [
        6,
        7
      ],
      "name": "jotarodiu"
    },
    {
      "mesh": 0,
      "name": "jotarodiu"
    },
    {
      "mesh": 1,
      "name": "jotarodiu"
    }
  ],
  "samplers": [
    {
      "magFilter": 9729,
      "minFilter": 9987,
      "wrapS": 10497,
      "wrapT": 10497
    }
  ],
  "scene": 0,
  "scenes": [
    {
      "name": "OSG_Scene",
      "nodes": [
        0
      ]
    }
  ],
  "textures": [
    {
      "sampler": 0,
      "source": 0
    },
    {
      "sampler": 0,
      "source": 1
    }
  ]
}

